<svg width="82" height="82" viewBox="0 0 82 82" fill="none" xmlns="http://www.w3.org/2000/svg">
<path d="M56.5352 33.1523H40.0391V42.041H39.7988L38.6777 41.5605L31.0703 45.0039V50.7695L32.832 51.8105L34.5938 51.0098L35.2344 48.6074H39.1582L39.4785 51.0098L41.4004 51.8105L42.9219 50.2891L44.9238 51.25C44.7904 52.1042 44.5074 53.8605 44.4434 54.0527C44.3793 54.2449 44.2565 55.4674 44.2031 56.0547L46.7656 56.6953L47.166 58.9375H51.9707L55.1738 58.6172L55.6543 56.6953L57.8164 55.5742V54.6133L56.8555 52.5312L58.9375 50.7695L61.0996 51.8105L62.6211 51.0098L63.0215 48.8477H67.7461L68.2266 51.0098L69.4277 51.8105L70.2285 50.2891C70.7891 50.3958 71.9582 50.6414 72.1504 50.7695C72.3906 50.9297 73.5117 52.4512 73.3516 52.7715C73.2234 53.0277 72.8177 54.1061 72.6309 54.6133C72.9779 55.2272 73.7199 56.4551 73.9121 56.4551H75.1133L75.834 58.9375L78.3164 58.6172L80.7988 52.7715V44.8438L75.834 33.4727H68.2266L67.9863 33.3926V15.0547L65.9043 12.9727H56.5352V33.1523Z" fill="#FFB58B"/>
<path d="M71.6699 18.3379V33.0723H75.4336V21.6211H80.6387V18.3379H71.6699Z" fill="#FFB58B"/>
<path d="M27.1465 42.1211L39.3984 37.4766V33.6328H30.6699L27.1465 36.1152V42.1211Z" fill="#FFB58B"/>
<path d="M56.1348 33.3125V12.9727H46.4453L39.7188 33.3125H56.1348Z" fill="white"/>
<path d="M19.2188 37.2363H15.1348L3.44336 59.3379H1.20117V62.7012H19.2188L21.8613 60.0586V41.0801L19.2188 37.2363Z" fill="#FF6B18"/>
<path fill-rule="evenodd" clip-rule="evenodd" d="M27.2266 48.207L21.9414 51.1699L21.6211 57.6562L21.9414 59.9785L27.0664 57.2082V60.9395L29.5488 61.3398L29.8691 63.0215C29.4154 63.5553 28.5078 64.6871 28.5078 64.9434C28.5078 65.2637 29.4688 66.625 29.8691 67.1055C30.16 67.4545 30.9581 67.2964 31.5264 67.1838C31.7404 67.1414 31.9217 67.1055 32.0312 67.1055C32.3516 67.1055 32.8587 66.3581 33.0723 65.9844C33.526 66.3581 34.4496 67.1855 34.5137 67.5059C34.5777 67.8262 35.0208 68.8672 35.2344 69.3477L39.3984 69.1074L39.7188 67.1055L41 66.3047L43.7227 67.1055L45.5645 65.2637L45.084 62.4609C45.7513 61.9538 47.0859 60.9074 47.0859 60.7793C47.0859 60.6512 47.3529 57.9499 47.4863 56.6152L45.084 56.375L44.5234 54.5332L45.8047 52.7715L43.7227 50.3691L41.7207 51.9707L39.7188 51.0898L39.3984 48.6875L34.9941 48.3672V51.0898L33.0723 51.9707L31.4707 50.3691L30.1032 51.2562L30.75 50.6094V45.084L39.7988 41.4805V37.4766H39.2383L27.2266 42.2012V48.207ZM29.5488 55.9746L28.2972 56.2976L30.0293 54.373L28.5078 52.8516L28.7583 52.6011L30.1895 54.373L29.5488 55.9746ZM40.5195 59.0176C40.5195 60.8308 39.0496 62.3008 37.2363 62.3008C35.4231 62.3008 33.9531 60.8308 33.9531 59.0176C33.9531 57.2043 35.4231 55.7344 37.2363 55.7344C39.0496 55.7344 40.5195 57.2043 40.5195 59.0176Z" fill="#B6BCBF"/>
<path fill-rule="evenodd" clip-rule="evenodd" d="M59.9785 50.3691L61.5801 51.9707L63.502 51.0898V48.3672L67.9062 48.6875L68.2266 51.0898L70.2285 51.9707L72.2305 50.3691L74.3125 52.7715L73.0312 54.5332L73.5918 56.375L75.9941 56.6152C75.8607 57.9499 75.5938 60.6512 75.5938 60.7793C75.5938 60.9074 74.2591 61.9538 73.5918 62.4609L74.0723 65.2637L72.2305 67.1055L69.5078 66.3047L68.2266 67.1055L67.9062 69.1074L63.7422 69.3477C63.5286 68.8672 63.0855 67.8262 63.0215 67.5059C62.9574 67.1855 62.0339 66.3581 61.5801 65.9844C61.3665 66.3581 60.8594 67.1055 60.5391 67.1055C60.4296 67.1055 60.2482 67.1414 60.0342 67.1838C59.4659 67.2964 58.6678 67.4545 58.377 67.1055C57.9766 66.625 57.0156 65.2637 57.0156 64.9434C57.0156 64.6871 57.9232 63.5553 58.377 63.0215L58.0566 61.3398L55.5742 60.9395V56.6152L58.0566 55.9746L58.6973 54.373L57.0156 52.291L59.9785 50.3691ZM65.2637 62.3008C67.0769 62.3008 68.5469 60.8308 68.5469 59.0176C68.5469 57.2043 67.0769 55.7344 65.2637 55.7344C63.4504 55.7344 61.9805 57.2043 61.9805 59.0176C61.9805 60.8308 63.4504 62.3008 65.2637 62.3008Z" fill="#B6BCBF"/>
<path fill-rule="evenodd" clip-rule="evenodd" d="M70.4688 58.9375C70.4688 61.768 68.1742 64.0625 65.3438 64.0625C62.5133 64.0625 60.2188 61.768 60.2188 58.9375C60.2188 56.107 62.5133 53.8125 65.3438 53.8125C68.1742 53.8125 70.4688 56.107 70.4688 58.9375ZM62.7434 58.9375C62.7434 60.3736 63.9076 61.5378 65.3438 61.5378C66.7799 61.5378 67.9441 60.3736 67.9441 58.9375C67.9441 57.5014 66.7799 56.3372 65.3438 56.3372C63.9076 56.3372 62.7434 57.5014 62.7434 58.9375Z" fill="#435159"/>
<path fill-rule="evenodd" clip-rule="evenodd" d="M37.1562 64.0625C39.9867 64.0625 42.2812 61.768 42.2812 58.9375C42.2812 56.107 39.9867 53.8125 37.1562 53.8125C34.3258 53.8125 32.0312 56.107 32.0312 58.9375C32.0312 61.768 34.3258 64.0625 37.1562 64.0625ZM37.1562 61.5378C35.7201 61.5378 34.5559 60.3736 34.5559 58.9375C34.5559 57.5014 35.7201 56.3372 37.1562 56.3372C38.5924 56.3372 39.7566 57.5014 39.7566 58.9375C39.7566 60.3736 38.5924 61.5378 37.1562 61.5378Z" fill="#435159"/>
<path fill-rule="evenodd" clip-rule="evenodd" d="M44.3211 14.2285C44.8226 12.6238 46.3087 11.5312 47.9899 11.5312H65.3437C67.4666 11.5312 69.1875 13.2522 69.1875 15.375V32.0312H70.4688V17.9375C70.4688 17.2299 71.0424 16.6562 71.75 16.6562H80.7188C81.4264 16.6562 82 17.2299 82 17.9375V21.7812C82 22.4889 81.4264 23.0625 80.7188 23.0625H76.875V33.006L81.9454 44.4949C81.9814 44.5764 82 44.6645 82 44.7536L81.9995 52.5718C81.9995 52.6541 81.9836 52.7357 81.9528 52.812L79.2809 59.4179C79.0852 59.9019 78.6153 60.2188 78.0932 60.2188H76.875V61.5C76.875 61.7352 76.8116 61.9555 76.7011 62.145C76.4789 62.5255 76.0662 62.7812 75.5938 62.7812L74.1523 62.7012L73.9922 63.1016L75.0494 64.111C75.3815 64.443 75.4932 64.9119 75.3846 65.3361C75.3295 65.5511 75.2178 65.7546 75.0494 65.9229L73.0661 67.9062H79.4375C80.1451 67.9062 80.7188 68.4799 80.7188 69.1875C80.7188 69.8951 80.1451 70.4688 79.4375 70.4688H9.56641C8.85879 70.4688 8.28516 69.8951 8.28516 69.1875C8.28516 68.4799 8.85879 67.9062 9.56641 67.9062H29.4799L27.4966 65.9229C27.3279 65.7542 27.2161 65.5501 27.1611 65.3345C27.0532 64.9108 27.165 64.4426 27.4966 64.111L28.668 62.9414L28.5879 62.7012L26.9062 62.7812C26.4442 62.7812 26.0393 62.5367 25.8139 62.17C25.6941 61.975 25.625 61.7456 25.625 61.5V59.4923L22.6633 61.2022L20.2361 63.6782C19.9952 63.924 19.6654 64.0625 19.3212 64.0625H1.28125C0.573635 64.0625 0 63.4889 0 62.7812V58.9375C0 58.2299 0.573635 57.6562 1.28125 57.6562H2.80185L5.11045 53.1868L13.4192 36.5829C13.6363 36.149 14.0799 35.875 14.565 35.875H19.1808C19.6053 35.875 20.0022 36.0852 20.2407 36.4363L23.0606 40.5877L23.0595 40.5885L23.0625 40.5883V49.1868L25.625 47.7073V38.1172C25.625 34.756 28.3498 32.0312 31.7109 32.0312H38.7664C38.7797 31.9704 38.7956 31.9102 38.8142 31.8508L44.3211 14.2285ZM77.2582 57.6562H76.875V56.375C76.875 56.1556 76.8199 55.9491 76.7227 55.7685C76.5064 55.3668 76.082 55.0938 75.5938 55.0938L74.2324 55.1738L74.0723 54.8535L75.0495 53.8055C75.3921 53.4628 75.5001 52.9743 75.3735 52.5398C75.3152 52.3398 75.2072 52.1512 75.0495 51.9935L72.3315 49.2756C72.1619 49.1059 71.9565 48.9938 71.7396 48.9392C71.3168 48.8327 70.8503 48.9448 70.5196 49.2756L69.5879 50.2891L69.1074 50.0488L69.1875 48.6875C69.1875 48.2274 68.945 47.824 68.5809 47.5981C68.385 47.4765 68.1538 47.4062 67.9062 47.4062H62.7812C62.5487 47.4062 62.3306 47.4682 62.1426 47.5765C61.7586 47.7978 61.5 48.2124 61.5 48.6875L61.6602 50.209L61.3398 50.3691L60.214 49.2756C59.994 49.0556 59.714 48.9323 59.4266 48.9058C59.2673 48.891 59.1058 48.906 58.9511 48.9508C58.75 49.0089 58.5605 49.1171 58.4021 49.2756L55.6841 51.9935C55.5341 52.1435 55.4291 52.3215 55.369 52.5106C55.2287 52.9524 55.3338 53.4551 55.6841 53.8055L56.6152 54.6934L56.4551 55.0137L55.0938 55.0938C54.622 55.0938 54.2098 55.3487 53.9874 55.7283C53.8762 55.9181 53.8125 56.1391 53.8125 56.375V57.6562H48.6875V56.375C48.6875 56.1556 48.6324 55.9491 48.5352 55.7685C48.3189 55.3668 47.8945 55.0938 47.4062 55.0938L46.0449 55.1738L45.8848 54.8535L46.862 53.8055C47.2046 53.4628 47.3126 52.9743 47.186 52.5398C47.1277 52.3398 47.0197 52.1512 46.862 51.9935L44.144 49.2756C43.9744 49.1059 43.769 48.9938 43.5521 48.9392C43.1293 48.8327 42.6628 48.9448 42.3321 49.2756L41.4004 50.2891L40.9199 50.0488L41 48.6875C41 48.2274 40.7575 47.824 40.3934 47.5981C40.1975 47.4765 39.9663 47.4062 39.7188 47.4062H34.5938C34.3612 47.4062 34.1431 47.4682 33.9551 47.5765C33.571 47.7978 33.3125 48.2124 33.3125 48.6875L33.4727 50.209L33.1523 50.3691L32.0312 49.2801V45.686L38.4375 42.9992V43.5625C38.4375 44.2701 39.0111 44.8438 39.7188 44.8438H60.3837C60.5826 44.8438 60.7703 44.7513 60.8915 44.5936L68.5813 34.5938H74.7747L79.4375 45.1587V52.2031L77.2582 57.6562ZM48.6875 60.2188H53.8125V61.5C53.8125 61.7456 53.8816 61.975 54.0014 62.17C54.2268 62.5367 54.6317 62.7812 55.0938 62.7812L56.7754 62.7012L56.8555 62.9414L55.6841 64.111C55.3525 64.4426 55.2407 64.9108 55.3486 65.3345C55.4036 65.5501 55.5154 65.7542 55.6841 65.9229L57.6674 67.9062H44.8786L46.8619 65.9229C47.0303 65.7546 47.142 65.5511 47.1971 65.3361C47.3057 64.9119 47.194 64.443 46.8619 64.111L45.8047 63.1016L45.9648 62.7012L47.4062 62.7812C47.8787 62.7812 48.2914 62.5255 48.5136 62.145C48.6241 61.9555 48.6875 61.7352 48.6875 61.5V60.2188ZM61.5 67.9062H60.8947L61.3398 67.4258L61.5 67.5059V67.9062ZM66.5577 67.9062H64.0625V66.3181C64.0625 66.0754 63.9254 65.8536 63.7084 65.7451L61.1964 64.4891C60.9417 64.3617 60.6335 64.4178 60.4399 64.6267L59.2722 65.8871L58.4028 65.0177L59.5073 63.9148C59.6791 63.7432 59.7392 63.4892 59.6624 63.2589L58.746 60.5096C58.6552 60.2374 58.3945 60.0587 58.1078 60.0723L56.375 60.1548V57.5853L57.7148 57.5065C57.9435 57.493 58.1477 57.3584 58.2501 57.1535L59.5423 54.5691C59.6682 54.3174 59.6151 54.0131 59.4114 53.819L58.4241 52.8774L59.321 51.9805L60.5329 53.1577C60.7282 53.3474 61.0222 53.3929 61.2657 53.2712L63.9974 51.9053C64.2362 51.7859 64.376 51.5308 64.348 51.2653L64.2115 49.9688H66.5452L66.4749 51.1634C66.4599 51.4193 66.5987 51.6594 66.8279 51.7741L69.7366 53.2284C69.9922 53.3562 70.3014 53.2993 70.4948 53.089L71.4653 52.0332L72.3621 52.9301L71.2878 54.0823C71.1054 54.2779 71.0637 54.5664 71.1834 54.8056L72.5072 57.4533C72.6218 57.6825 72.862 57.8214 73.1178 57.8063L74.3125 57.736V60.1436L72.9162 60.066C72.6416 60.0508 72.3879 60.2124 72.2858 60.4678L71.1304 63.3564C71.0332 63.5993 71.0935 63.8769 71.2828 64.0576L72.3101 65.0384L71.3833 65.9652L70.0145 64.7242C69.8187 64.5467 69.5341 64.5077 69.2977 64.6258L66.8388 65.8553C66.6114 65.969 66.4727 66.2064 66.4854 66.4603L66.5577 67.9062ZM69.7092 67.9062H69.1234L69.1074 67.5859L69.2676 67.5059L69.7092 67.9062ZM25.625 56.5334V56.375C25.625 56.1391 25.6887 55.9181 25.7999 55.7283C26.0223 55.3487 26.4345 55.0938 26.9062 55.0938L28.2676 55.0137L28.4277 54.6934L27.4966 53.8055C27.1463 53.4551 27.0412 52.9524 27.1815 52.5106C27.2416 52.3215 27.3466 52.1435 27.4966 51.9935L29.4688 50.0214V44.678C29.4688 44.2929 29.6987 43.945 30.0529 43.794L38.4375 40.2205V39.0101L28.1875 43.1027V48.7993C28.1875 49.0275 28.0661 49.2385 27.8687 49.3532L23.0625 52.1457V58.0128L25.625 56.5334ZM32.7072 67.9062H33.3125V67.5059L33.1523 67.4258L32.7072 67.9062ZM35.875 67.9062H38.3702L38.2979 66.4603C38.2852 66.2064 38.4239 65.969 38.6513 65.8553L41.1102 64.6258C41.3466 64.5077 41.6312 64.5467 41.827 64.7242L43.1958 65.9652L44.1226 65.0384L43.0953 64.0576C42.906 63.8769 42.8457 63.5993 42.9429 63.3564L44.0983 60.4678C44.2004 60.2124 44.4541 60.0508 44.7287 60.066L46.125 60.1436V57.736L44.9303 57.8063C44.6745 57.8214 44.4343 57.6825 44.3197 57.4533L42.9959 54.8056C42.8762 54.5664 42.9179 54.2779 43.1003 54.0823L44.1746 52.9301L43.2778 52.0332L42.3073 53.089C42.1139 53.2993 41.8047 53.3562 41.5491 53.2284L38.6405 51.7741C38.4112 51.6594 38.2724 51.4193 38.2874 51.1634L38.3577 49.9688H36.024L36.1605 51.2653C36.1885 51.5308 36.0487 51.7859 35.8099 51.9053L33.0782 53.2712C32.8347 53.3929 32.5407 53.3474 32.3454 53.1577L31.1335 51.9805L30.2366 52.8774L31.2239 53.819C31.4276 54.0131 31.4807 54.3174 31.3548 54.5691L30.0626 57.1535C29.9602 57.3584 29.756 57.493 29.5273 57.5065L28.1875 57.5853V60.1548L29.9203 60.0723C30.207 60.0587 30.4677 60.2374 30.5585 60.5096L31.4749 63.2589C31.5517 63.4892 31.4916 63.7432 31.3198 63.9148L30.2153 65.0177L31.0847 65.8871L32.2524 64.6267C32.446 64.4178 32.7542 64.3617 33.0089 64.4891L35.5209 65.7451C35.7379 65.8536 35.875 66.0754 35.875 66.3181V67.9062ZM40.9359 67.9062H41.5217L41.0801 67.5059L40.9199 67.5859L40.9359 67.9062ZM15.3889 38.4375L7.40018 54.3372L4.50399 59.875C4.39348 60.0863 4.17476 60.2188 3.93631 60.2188H2.5625V61.5H18.7416L20.5 59.7416V41.3712L18.5295 38.4375H15.3889ZM28.1875 40.3435L38.4375 36.2509V34.5938H31.7109C29.8866 34.5938 28.3861 35.9802 28.2057 37.7569C28.1937 37.8754 28.1875 37.9956 28.1875 38.1172V40.3435ZM73.0312 32.0312H74.3125V21.7812C74.3125 21.0736 74.8861 20.5 75.5938 20.5H79.4375V19.2188H73.0312V32.0312ZM41 42.2812H59.4642L66.625 32.9338V15.375C66.625 14.6674 66.0513 14.0938 65.3437 14.0938H57.6562V33.3125C57.6562 34.0201 57.0826 34.5938 56.375 34.5938H41V42.2812ZM41.4425 32.0312H55.0938V14.0938H47.9899C47.4295 14.0938 46.9341 14.4579 46.767 14.9928L41.4425 32.0312Z" fill="#435159"/>
</svg>
