<svg width="92" height="56" viewBox="0 0 92 56" fill="none" xmlns="http://www.w3.org/2000/svg">
<g clip-path="url(#clip0)">
<path d="M26.3426 46.7557C28.4424 44.995 28.805 42.8101 28.805 40.8577V32.6296H17.3899V43.7927C17.3899 45.3877 16.1022 46.6831 14.5185 46.6831C12.9312 46.6831 11.7526 45.3896 11.7526 43.7927V12.1682C11.7526 10.5732 12.9312 9.27967 14.5185 9.27967C16.1004 9.27967 17.3899 10.5713 17.3899 12.1682V23.4002H28.7921V11.7494C28.7902 5.31171 24.609 0.0148892 14.4205 0C3.96002 0 0.00634766 5.32287 0.00634766 11.7606V44.7754C0.00634766 51.1573 5.04233 55.987 11.4807 55.9851H15.0181L26.3426 46.7557ZM71.3518 48.051V11.7699H63.476V1.08133H91.9916V11.7699H84.0713V55.9237H80.6949L71.3518 48.051Z" fill="white"/>
<path d="M76.4629 56L48.691 32.5961L19.9146 56H76.4629Z" fill="#F6D33C"/>
<path d="M56.6186 1.14086H40.7077L31.4387 42.9738L48.6983 28.9631L66.6943 44.1315L56.6186 1.14086ZM45.6198 26.2812L48.6983 10.4708L51.7528 26.2812H45.6198Z" fill="white"/>
</g>
<defs>
<clipPath id="clip0">
<rect width="92" height="56" fill="white"/>
</clipPath>
</defs>
</svg>
