<svg width="204" height="31" viewBox="0 0 204 31" fill="none" xmlns="http://www.w3.org/2000/svg">
<path d="M0.4 2.04H15.44C18.24 2.04 20.4933 2.73333 22.2 4.12C23.9067 5.48 24.76 7.41333 24.76 9.92C24.76 10.9867 24.52 12 24.04 12.96C23.5867 13.92 22.92 14.7067 22.04 15.32C23.32 15.9333 24.2267 16.7067 24.76 17.64C25.32 18.5733 25.6 19.7867 25.6 21.28C25.6 23.04 25.1733 24.5867 24.32 25.92C23.4667 27.2267 22.32 28.24 20.88 28.96C19.44 29.6533 17.84 30 16.08 30H0.4V2.04ZM12.72 12.64C13.5467 12.64 14.1467 12.48 14.52 12.16C14.92 11.8133 15.12 11.2533 15.12 10.48C15.12 9.76 14.92 9.24 14.52 8.92C14.1467 8.6 13.5467 8.44 12.72 8.44H9.6V12.64H12.72ZM13.24 23.6C14.2 23.6 14.8933 23.4133 15.32 23.04C15.7467 22.6667 15.96 22.0667 15.96 21.24C15.96 20.4133 15.7467 19.8133 15.32 19.44C14.8933 19.04 14.2 18.84 13.24 18.84H9.6V23.6H13.24ZM27.5875 2.04H37.0675V22.04H47.5075V30H27.5875V2.04ZM48.7203 2.04H59.4403C62.5336 2.04 65.2403 2.6 67.5603 3.72C69.907 4.84 71.7203 6.44 73.0003 8.52C74.2803 10.6 74.9203 13.0533 74.9203 15.88C74.9203 20.52 73.5336 24.04 70.7603 26.44C68.0136 28.8133 64.2403 30 59.4403 30H48.7203V2.04ZM60.0803 21.2C63.547 21.2 65.2803 19.4267 65.2803 15.88C65.2803 14.2533 64.827 13.0133 63.9203 12.16C63.0136 11.28 61.7336 10.84 60.0803 10.84H58.2003V21.2H60.0803Z" fill="#FF6B18"/>
<path d="M76.9234 2.04H90.3634C93.8301 2.04 96.5768 2.90667 98.6034 4.64C100.63 6.37333 101.643 8.89333 101.643 12.2C101.643 14.28 101.23 16.0533 100.403 17.52C99.5768 18.96 98.4034 20.0933 96.8834 20.92L101.283 30H91.7234L88.0434 22.36H86.2434V30H76.9234V2.04ZM88.3634 15.28C90.7901 15.28 92.0034 14.2533 92.0034 12.2C92.0034 10.1467 90.7901 9.12 88.3634 9.12H86.2434V15.28H88.3634ZM115.362 30.6C111.416 30.6 108.336 29.72 106.122 27.96C103.936 26.2 102.842 23.7067 102.842 20.48C102.842 17.3067 103.829 14.8 105.802 12.96C107.802 11.12 110.669 10.2 114.402 10.2C116.776 10.2 118.802 10.64 120.482 11.52C122.189 12.4 123.469 13.6 124.322 15.12C125.202 16.64 125.642 18.3467 125.642 20.24V22.84H111.402C112.176 24.2267 113.922 24.92 116.642 24.92C117.896 24.92 119.202 24.8267 120.562 24.64C121.949 24.4267 123.122 24.1333 124.082 23.76V29.16C123.016 29.5867 121.696 29.9333 120.122 30.2C118.576 30.4667 116.989 30.6 115.362 30.6ZM117.162 17.92C116.842 16.5867 115.869 15.92 114.242 15.92C112.669 15.92 111.722 16.5867 111.402 17.92H117.162ZM127.627 10.8H136.307V12.4C137.107 11.7067 138.04 11.1733 139.107 10.8C140.173 10.4 141.293 10.2 142.467 10.2C145.267 10.2 147.307 10.9067 148.587 12.32C149.893 13.7067 150.547 15.64 150.547 18.12V30H141.547V19.44C141.547 18.6933 141.387 18.1333 141.067 17.76C140.773 17.36 140.28 17.16 139.587 17.16C138.28 17.16 137.293 17.76 136.627 18.96V30H127.627V10.8ZM162.054 30.6C159.441 30.6 157.468 29.8667 156.134 28.4C154.801 26.9333 154.134 24.9733 154.134 22.52V16.72H151.534V10.8H154.134V5.04H163.134V10.8H167.294V16.72H163.134V21.2C163.134 22.08 163.294 22.7067 163.614 23.08C163.934 23.4533 164.481 23.64 165.254 23.64C166.241 23.64 167.188 23.36 168.094 22.8V29.44C167.268 29.84 166.401 30.1333 165.494 30.32C164.588 30.5067 163.441 30.6 162.054 30.6ZM176.746 30.6C174.24 30.6 172.24 30.0533 170.746 28.96C169.253 27.84 168.506 26.2133 168.506 24.08C168.506 21.92 169.226 20.28 170.666 19.16C172.133 18.04 174.293 17.48 177.146 17.48C178 17.48 178.933 17.5867 179.946 17.8C180.96 17.9867 181.8 18.2133 182.466 18.48V18.16C182.466 17.4667 182.026 16.92 181.146 16.52C180.266 16.12 179.106 15.92 177.666 15.92C175.346 15.92 173.226 16.4 171.306 17.36V11.64C172.186 11.2133 173.346 10.8667 174.786 10.6C176.226 10.3333 177.813 10.2 179.546 10.2C183.386 10.2 186.333 10.9067 188.386 12.32C190.44 13.7333 191.466 15.7333 191.466 18.32V30H182.986V28.6C182.373 29.16 181.493 29.6267 180.346 30C179.226 30.4 178.026 30.6 176.746 30.6ZM179.626 25.64C180.186 25.64 180.72 25.5333 181.226 25.32C181.76 25.1067 182.173 24.84 182.466 24.52V23.24C181.586 22.7333 180.64 22.48 179.626 22.48C179.066 22.48 178.626 22.6267 178.306 22.92C177.986 23.2133 177.826 23.6 177.826 24.08C177.826 24.5333 177.973 24.9067 178.266 25.2C178.586 25.4933 179.04 25.64 179.626 25.64ZM194.072 0.439999H203.072V30H194.072V0.439999Z" fill="#485962"/>
</svg>
